<?xml version="1.0" encoding="UTF-8" standalone="no"?>
<!-- Created with Inkscape (http://www.inkscape.org/) -->

<svg
   xmlns:dc="http://purl.org/dc/elements/1.1/"
   xmlns:cc="http://creativecommons.org/ns#"
   xmlns:rdf="http://www.w3.org/1999/02/22-rdf-syntax-ns#"
   xmlns:svg="http://www.w3.org/2000/svg"
   xmlns="http://www.w3.org/2000/svg"
   xmlns:sodipodi="http://sodipodi.sourceforge.net/DTD/sodipodi-0.dtd"
   xmlns:inkscape="http://www.inkscape.org/namespaces/inkscape"
   width="69"
   height="18"
   viewBox="0 0 18.256249 4.7624999"
   version="1.1"
   id="svg107"
   inkscape:version="0.92.5 (2060ec1f9f, 2020-04-08)"
   sodipodi:docname="store_exchange_icon.svg">
  <defs
     id="defs101" />
  <sodipodi:namedview
     id="base"
     pagecolor="#ffffff"
     bordercolor="#666666"
     borderopacity="1.0"
     inkscape:pageopacity="0.0"
     inkscape:pageshadow="2"
     inkscape:zoom="12.970462"
     inkscape:cx="11.557686"
     inkscape:cy="8.905635"
     inkscape:document-units="mm"
     inkscape:current-layer="layer1"
     showgrid="false"
     inkscape:window-width="2488"
     inkscape:window-height="1376"
     inkscape:window-x="72"
     inkscape:window-y="27"
     inkscape:window-maximized="1"
     units="px"
     height="17px" />
  <metadata
     id="metadata104">
    <rdf:RDF>
      <cc:Work
         rdf:about="">
        <dc:format>image/svg+xml</dc:format>
        <dc:type
           rdf:resource="http://purl.org/dc/dcmitype/StillImage" />
        <dc:title></dc:title>
      </cc:Work>
    </rdf:RDF>
  </metadata>
  <g
     inkscape:label="Layer 1"
     inkscape:groupmode="layer"
     id="layer1"
     transform="translate(0,-292.23749)">
    <g
       id="g4559"
       transform="matrix(0.13925132,0,0,0.13925132,-0.72981196,288.75981)"
       inkscape:export-xdpi="92"
       inkscape:export-ydpi="92">
      <path
         style="stroke-width:0.07812495"
         inkscape:connector-curvature="0"
         d="M 50.811876,35.125 V 33.874994 C 50.811876,32.839449 51.651341,32 52.686881,32 h 28.124993 v -3.75001 c 0,-1.6693 2.023346,-2.503275 3.200856,-1.32585 l 6.249986,6.25 c 0.732192,0.73222 0.732192,1.91946 0,2.651649 l -6.249986,6.25 c -1.173045,1.172775 -3.200856,0.35046 -3.200856,-1.3258 V 37 H 52.686881 c -1.03554,0 -1.875005,-0.8395 -1.875005,-1.875 z M 88.936868,46.999998 H 60.811876 v -3.750009 c 0,-1.66517 -2.020485,-2.50624 -3.200851,-1.32585 l -6.250004,6.250003 c -0.73217,0.732216 -0.73217,1.919448 0,2.651648 l 6.250004,6.25 c 1.174046,1.173984 3.200851,0.348968 3.200851,-1.3258 v -3.749992 h 28.124992 c 1.035544,0 1.875008,-0.839496 1.875008,-1.875 V 48.87499 c 0,-1.035544 -0.839464,-1.874992 -1.875008,-1.874992 z"
         id="path404" />
      <path
         style="stroke-width:0.06494283"
         inkscape:connector-curvature="0"
         d="M 45.045385,33.245468 40.830601,26.517396 C 40.453929,25.913427 39.785017,25.543251 39.070649,25.543251 H 12.833751 c -0.714368,0 -1.38328,0.370176 -1.759952,0.974145 l -4.2147856,6.728072 c -2.175584,3.474441 -0.246784,8.306185 3.8186326,8.858201 0.292248,0.03896 0.590985,0.05848 0.889721,0.05848 1.922304,0 3.623808,-0.844256 4.792776,-2.149608 1.168976,1.305352 2.876968,2.149608 4.792784,2.149608 1.922304,0 3.623808,-0.844256 4.792776,-2.149608 1.168976,1.305352 2.876968,2.149608 4.792785,2.149608 1.922304,0 3.623808,-0.844256 4.792776,-2.149608 1.175464,1.305352 2.876968,2.149608 4.792785,2.149608 0.305224,0 0.597472,-0.01944 0.889712,-0.05848 4.078408,-0.54552 6.013704,-5.377264 3.831624,-8.858201 z m -4.708352,11.001313 c -0.649424,0 -1.29236,-0.09741 -1.915809,-0.246784 v 6.481297 H 13.483183 v -6.481297 c -0.623456,0.14288 -1.266392,0.246784 -1.915816,0.246784 -0.389656,0 -0.785809,-0.026 -1.168969,-0.07792 -0.36368,-0.05192 -0.720872,-0.136384 -1.065065,-0.233792 v 12.780746 c 0,1.149488 0.928681,2.078168 2.07817,2.078168 h 29.094386 c 1.149488,0 2.078168,-0.92868 2.078168,-2.078168 V 43.935069 c -0.350696,0.103904 -0.701384,0.188328 -1.065064,0.233792 -0.396152,0.05192 -0.785808,0.07792 -1.18196,0.07792 z"
         id="path624" />
      <path
         style="stroke-width:0.06250592"
         inkscape:connector-curvature="0"
         d="m 115.66897,50.606004 h -12.00113 v -10.00095 h -4.00038 v 16.00152 c 0,1.10635 0.89383,2.00019 2.00019,2.00019 h 16.00151 c 1.10636,0 2.00019,-0.89384 2.00019,-2.00019 v -16.00152 h -4.00038 z m 19.66437,-15.11393 -5.33176,-8.00076 c -0.37503,-0.5563 -1.00009,-0.88758 -1.66891,-0.88758 h -25.3274 c -0.66881,0 -1.29387,0.33128 -1.66265,0.88758 l -5.33176,8.00076 c -0.88758,1.33138 0.0625,3.11279 1.66266,3.11279 h 35.99716 c 1.5939,0 2.54399,-1.78141 1.66266,-3.11279 z m -7.66323,22.1146 c 0,0.55005 0.45005,1.00009 1.0001,1.00009 h 2.00019 c 0.55005,0 1.00009,-0.45004 1.00009,-1.00009 v -17.00162 h -4.00038 z"
         id="path834" />
    </g>
  </g>
</svg>
